<mxfile host="app.diagrams.net" modified="2024-04-15T13:29:07.716Z" agent="Mozilla/5.0 (Windows NT 10.0; Win64; x64) AppleWebKit/537.36 (KHTML, like Gecko) Chrome/123.0.0.0 Safari/537.36" version="24.2.5" etag="kRfi38ZaUc7Bil-7s5ay" type="github">
  <diagram name="Page-1" id="A432a2K4g7-DF27DUW2X">
    <mxGraphModel>
      <root>
        <mxCell id="0" />
        <mxCell id="1" parent="0" />
      </root>
    </mxGraphModel>
  </diagram>
</mxfile>
